<svg width="1024" height="1024" viewBox="0 0 1024 1024" fill="none" xmlns="http://www.w3.org/2000/svg">
<rect width="1024" height="1024" fill="#3C486B"/>
<circle cx="512" cy="512" r="275" fill="url(#paint0_linear_6_49)"/>
<path fill-rule="evenodd" clip-rule="evenodd" d="M245.339 411.198C246.74 407.494 248.216 403.828 249.764 400.2C234.609 402.973 220.239 405.981 206.749 409.203C167.651 418.539 135.661 429.73 113.324 442.341C91.3907 454.724 77 469.506 77 486.652C77 503.797 91.3907 518.579 113.324 530.962C135.661 543.573 167.651 554.764 206.749 564.1C285.023 582.791 392.902 594.303 511.884 594.303C630.865 594.303 738.744 582.791 817.019 564.1C856.117 554.764 888.106 543.573 910.443 530.962C932.377 518.579 946.767 503.797 946.767 486.652C946.767 469.506 932.377 454.724 910.443 442.341C888.106 429.73 856.117 418.539 817.019 409.203C803.603 405.999 789.318 403.006 774.256 400.247C775.804 403.875 777.279 407.542 778.679 411.245C791.29 413.646 803.315 416.212 814.696 418.929C853.392 428.169 884.357 439.097 905.527 451.049C927.1 463.228 936.767 475.451 936.767 486.652C936.767 497.852 927.1 510.075 905.527 522.254C884.357 534.206 853.392 545.134 814.696 554.374C737.383 572.835 630.321 584.303 511.884 584.303C393.447 584.303 286.384 572.835 209.071 554.374C170.375 545.134 139.41 534.206 118.241 522.254C96.6675 510.075 87 497.852 87 486.652C87 475.451 96.6675 463.228 118.241 451.049C139.41 439.097 170.375 428.169 209.071 418.929C220.527 416.194 232.637 413.612 245.339 411.198Z" fill="#F0F0F0" style="mix-blend-mode:plus-lighter"/>
<g style="mix-blend-mode:soft-light">
<path d="M405.318 279.665C408.075 284.451 400.61 293.917 388.646 300.808C376.681 307.699 364.747 309.406 361.991 304.62C359.235 299.834 366.699 290.368 378.664 283.477C390.628 276.586 402.562 274.88 405.318 279.665Z" fill="#960000" style="mix-blend-mode:darken"/>
</g>
<g style="mix-blend-mode:soft-light">
<ellipse cx="421.128" cy="272.252" rx="10" ry="5" transform="rotate(-21 421.128 272.252)" fill="#960000"/>
</g>
<path d="M238.053 157.961C238.789 153.495 245.211 153.495 245.947 157.961L250.726 186.977C251.005 188.669 252.331 189.995 254.023 190.274L283.039 195.053C287.505 195.789 287.505 202.211 283.039 202.947L254.023 207.726C252.331 208.005 251.005 209.331 250.726 211.023L245.947 240.039C245.211 244.505 238.789 244.505 238.053 240.039L233.274 211.023C232.995 209.331 231.669 208.005 229.977 207.726L200.961 202.947C196.495 202.211 196.495 195.789 200.961 195.053L229.977 190.274C231.669 189.995 232.995 188.669 233.274 186.977L238.053 157.961Z" fill="#F0F0F0"/>
<path d="M788.553 768.961C789.289 764.495 795.711 764.495 796.447 768.961L801.58 800.124C801.858 801.816 803.184 803.142 804.876 803.42L836.039 808.553C840.505 809.289 840.505 815.711 836.039 816.447L804.876 821.58C803.184 821.858 801.858 823.184 801.58 824.876L796.447 856.039C795.711 860.505 789.289 860.505 788.553 856.039L783.42 824.876C783.142 823.184 781.816 821.858 780.124 821.58L748.961 816.447C744.495 815.711 744.495 809.289 748.961 808.553L780.124 803.42C781.816 803.142 783.142 801.816 783.42 800.124L788.553 768.961Z" fill="#F0F0F0"/>
<defs>
<linearGradient id="paint0_linear_6_49" x1="512" y1="237" x2="512" y2="787" gradientUnits="userSpaceOnUse">
<stop stop-color="#F9D949"/>
<stop offset="0.484375" stop-color="#F45050"/>
<stop offset="1" stop-color="#960000"/>
</linearGradient>
</defs>
</svg>
