<svg width="1024" height="1024" viewBox="0 0 1024 1024" fill="none" xmlns="http://www.w3.org/2000/svg">
<circle cx="512" cy="512" r="275" fill="url(#paint0_linear_16_5)"/>
<path fill-rule="evenodd" clip-rule="evenodd" d="M245.339 411.198C246.74 407.494 248.216 403.828 249.764 400.2C234.609 402.973 220.239 405.981 206.749 409.203C167.651 418.539 135.661 429.73 113.324 442.341C91.3907 454.724 77 469.506 77 486.652C77 503.797 91.3907 518.579 113.324 530.962C135.661 543.573 167.651 554.764 206.749 564.1C285.023 582.791 392.902 594.303 511.884 594.303C630.865 594.303 738.744 582.791 817.019 564.1C856.117 554.764 888.106 543.573 910.443 530.962C932.377 518.579 946.767 503.797 946.767 486.652C946.767 469.506 932.377 454.724 910.443 442.341C888.106 429.73 856.117 418.539 817.019 409.203C803.603 405.999 789.318 403.006 774.256 400.247C775.804 403.875 777.279 407.542 778.679 411.245C791.29 413.646 803.315 416.212 814.696 418.929C853.392 428.169 884.357 439.097 905.527 451.049C927.1 463.228 936.767 475.451 936.767 486.652C936.767 497.852 927.1 510.075 905.527 522.254C884.357 534.206 853.392 545.134 814.696 554.374C737.383 572.835 630.321 584.303 511.884 584.303C393.447 584.303 286.384 572.835 209.071 554.374C170.375 545.134 139.41 534.206 118.241 522.254C96.6675 510.075 87 497.852 87 486.652C87 475.451 96.6675 463.228 118.241 451.049C139.41 439.097 170.375 428.169 209.071 418.929C220.527 416.194 232.637 413.612 245.339 411.198Z" fill="#F0F0F0" style="mix-blend-mode:plus-lighter"/>
<g style="mix-blend-mode:soft-light">
<path d="M405.318 279.665C408.075 284.451 400.61 293.917 388.646 300.808C376.681 307.699 364.747 309.406 361.991 304.62C359.235 299.834 366.699 290.368 378.664 283.477C390.628 276.586 402.562 274.88 405.318 279.665Z" fill="#960000" style="mix-blend-mode:darken"/>
</g>
<g style="mix-blend-mode:soft-light">
<ellipse cx="421.128" cy="272.252" rx="10" ry="5" transform="rotate(-21 421.128 272.252)" fill="#960000"/>
</g>
<path d="M142.137 745V673.48H118.617V661H179.337V673.48H155.097V745H142.137ZM195.318 745V661H248.238V673.48H208.278V732.52H248.238V745H195.318ZM201.198 708.16V695.68H241.638V708.16H201.198ZM294.948 746.2C290.388 746.2 286.148 745.6 282.228 744.4C278.388 743.2 274.868 741.4 271.668 739C268.548 736.52 265.748 733.48 263.268 729.88L272.148 719.68C276.068 725.28 279.828 729.16 283.428 731.32C287.028 733.48 291.308 734.56 296.268 734.56C299.308 734.56 302.068 734.08 304.548 733.12C307.028 732.16 308.988 730.84 310.428 729.16C311.868 727.48 312.588 725.56 312.588 723.4C312.588 721.96 312.348 720.6 311.868 719.32C311.388 718.04 310.628 716.88 309.588 715.84C308.628 714.8 307.348 713.84 305.748 712.96C304.228 712.08 302.428 711.32 300.348 710.68C298.268 709.96 295.868 709.36 293.148 708.88C288.828 708 285.068 706.84 281.868 705.4C278.668 703.96 275.988 702.16 273.828 700C271.668 697.84 270.068 695.4 269.028 692.68C267.988 689.88 267.468 686.76 267.468 683.32C267.468 679.96 268.188 676.84 269.628 673.96C271.148 671.08 273.188 668.6 275.748 666.52C278.388 664.36 281.468 662.72 284.988 661.6C288.508 660.4 292.308 659.8 296.388 659.8C300.708 659.8 304.668 660.36 308.268 661.48C311.868 662.6 315.068 664.28 317.868 666.52C320.668 668.68 322.988 671.36 324.828 674.56L315.708 683.56C314.108 680.92 312.308 678.72 310.308 676.96C308.308 675.12 306.108 673.76 303.708 672.88C301.308 671.92 298.748 671.44 296.028 671.44C292.908 671.44 290.188 671.92 287.868 672.88C285.548 673.84 283.708 675.2 282.348 676.96C281.068 678.64 280.428 680.64 280.428 682.96C280.428 684.64 280.748 686.2 281.388 687.64C282.028 689 282.988 690.24 284.268 691.36C285.628 692.4 287.428 693.36 289.668 694.24C291.908 695.04 294.588 695.76 297.708 696.4C302.108 697.36 306.028 698.6 309.468 700.12C312.908 701.56 315.828 703.28 318.228 705.28C320.628 707.28 322.428 709.52 323.628 712C324.908 714.48 325.548 717.16 325.548 720.04C325.548 725.4 324.308 730.04 321.828 733.96C319.348 737.88 315.828 740.92 311.268 743.08C306.708 745.16 301.268 746.2 294.948 746.2ZM359.871 745V673.48H336.351V661H397.071V673.48H372.831V745H359.871ZM508.485 758.2L476.685 716.56L487.365 709.48L518.805 750.76L508.485 758.2ZM481.845 746.2C475.925 746.2 470.445 745.12 465.405 742.96C460.445 740.8 456.085 737.8 452.325 733.96C448.645 730.04 445.765 725.48 443.685 720.28C441.685 715 440.685 709.24 440.685 703C440.685 696.76 441.685 691.04 443.685 685.84C445.765 680.56 448.645 676 452.325 672.16C456.085 668.24 460.445 665.2 465.405 663.04C470.445 660.88 475.925 659.8 481.845 659.8C487.765 659.8 493.205 660.88 498.165 663.04C503.205 665.2 507.565 668.24 511.245 672.16C515.005 676.08 517.885 680.68 519.885 685.96C521.965 691.16 523.005 696.84 523.005 703C523.005 709.16 521.965 714.88 519.885 720.16C517.885 725.36 515.005 729.92 511.245 733.84C507.565 737.76 503.205 740.8 498.165 742.96C493.205 745.12 487.765 746.2 481.845 746.2ZM481.845 733.6C485.925 733.6 489.645 732.84 493.005 731.32C496.445 729.8 499.405 727.68 501.885 724.96C504.365 722.16 506.285 718.92 507.645 715.24C509.085 711.48 509.805 707.4 509.805 703C509.805 698.6 509.085 694.56 507.645 690.88C506.285 687.12 504.365 683.88 501.885 681.16C499.405 678.36 496.445 676.2 493.005 674.68C489.645 673.16 485.925 672.4 481.845 672.4C477.765 672.4 474.005 673.16 470.565 674.68C467.205 676.2 464.245 678.32 461.685 681.04C459.205 683.76 457.285 687 455.925 690.76C454.565 694.44 453.885 698.52 453.885 703C453.885 707.4 454.565 711.48 455.925 715.24C457.285 719 459.205 722.24 461.685 724.96C464.245 727.68 467.205 729.8 470.565 731.32C474.005 732.84 477.765 733.6 481.845 733.6ZM573.192 745.72C566.712 745.72 560.912 744.32 555.792 741.52C550.672 738.64 546.632 734.72 543.672 729.76C540.792 724.72 539.352 719.04 539.352 712.72V660.88H552.312V711.64C552.312 715.72 553.272 719.4 555.192 722.68C557.112 725.88 559.632 728.44 562.752 730.36C565.952 732.28 569.432 733.24 573.192 733.24C577.192 733.24 580.792 732.28 583.992 730.36C587.272 728.44 589.872 725.88 591.792 722.68C593.712 719.4 594.672 715.72 594.672 711.64V660.88H607.032V712.72C607.032 719.04 605.552 724.72 602.592 729.76C599.712 734.72 595.712 738.64 590.592 741.52C585.472 744.32 579.672 745.72 573.192 745.72ZM629.38 745V661H682.3V673.48H642.34V732.52H682.3V745H629.38ZM635.26 708.16V695.68H675.7V708.16H635.26ZM729.011 746.2C724.451 746.2 720.211 745.6 716.291 744.4C712.451 743.2 708.931 741.4 705.731 739C702.611 736.52 699.811 733.48 697.331 729.88L706.211 719.68C710.131 725.28 713.891 729.16 717.491 731.32C721.091 733.48 725.371 734.56 730.331 734.56C733.371 734.56 736.131 734.08 738.611 733.12C741.091 732.16 743.051 730.84 744.491 729.16C745.931 727.48 746.651 725.56 746.651 723.4C746.651 721.96 746.411 720.6 745.931 719.32C745.451 718.04 744.691 716.88 743.651 715.84C742.691 714.8 741.411 713.84 739.811 712.96C738.291 712.08 736.491 711.32 734.411 710.68C732.331 709.96 729.931 709.36 727.211 708.88C722.891 708 719.131 706.84 715.931 705.4C712.731 703.96 710.051 702.16 707.891 700C705.731 697.84 704.131 695.4 703.091 692.68C702.051 689.88 701.531 686.76 701.531 683.32C701.531 679.96 702.251 676.84 703.691 673.96C705.211 671.08 707.251 668.6 709.811 666.52C712.451 664.36 715.531 662.72 719.051 661.6C722.571 660.4 726.371 659.8 730.451 659.8C734.771 659.8 738.731 660.36 742.331 661.48C745.931 662.6 749.131 664.28 751.931 666.52C754.731 668.68 757.051 671.36 758.891 674.56L749.771 683.56C748.171 680.92 746.371 678.72 744.371 676.96C742.371 675.12 740.171 673.76 737.771 672.88C735.371 671.92 732.811 671.44 730.091 671.44C726.971 671.44 724.251 671.92 721.931 672.88C719.611 673.84 717.771 675.2 716.411 676.96C715.131 678.64 714.491 680.64 714.491 682.96C714.491 684.64 714.811 686.2 715.451 687.64C716.091 689 717.051 690.24 718.331 691.36C719.691 692.4 721.491 693.36 723.731 694.24C725.971 695.04 728.651 695.76 731.771 696.4C736.171 697.36 740.091 698.6 743.531 700.12C746.971 701.56 749.891 703.28 752.291 705.28C754.691 707.28 756.491 709.52 757.691 712C758.971 714.48 759.611 717.16 759.611 720.04C759.611 725.4 758.371 730.04 755.891 733.96C753.411 737.88 749.891 740.92 745.331 743.08C740.771 745.16 735.331 746.2 729.011 746.2ZM793.934 745V673.48H770.414V661H831.134V673.48H806.894V745H793.934ZM873.034 746.2C868.474 746.2 864.234 745.6 860.314 744.4C856.474 743.2 852.954 741.4 849.754 739C846.634 736.52 843.834 733.48 841.354 729.88L850.234 719.68C854.154 725.28 857.914 729.16 861.514 731.32C865.114 733.48 869.394 734.56 874.354 734.56C877.394 734.56 880.154 734.08 882.634 733.12C885.114 732.16 887.074 730.84 888.514 729.16C889.954 727.48 890.674 725.56 890.674 723.4C890.674 721.96 890.434 720.6 889.954 719.32C889.474 718.04 888.714 716.88 887.674 715.84C886.714 714.8 885.434 713.84 883.834 712.96C882.314 712.08 880.514 711.32 878.434 710.68C876.354 709.96 873.954 709.36 871.234 708.88C866.914 708 863.154 706.84 859.954 705.4C856.754 703.96 854.074 702.16 851.914 700C849.754 697.84 848.154 695.4 847.114 692.68C846.074 689.88 845.554 686.76 845.554 683.32C845.554 679.96 846.274 676.84 847.714 673.96C849.234 671.08 851.274 668.6 853.834 666.52C856.474 664.36 859.554 662.72 863.074 661.6C866.594 660.4 870.394 659.8 874.474 659.8C878.794 659.8 882.754 660.36 886.354 661.48C889.954 662.6 893.154 664.28 895.954 666.52C898.754 668.68 901.074 671.36 902.914 674.56L893.794 683.56C892.194 680.92 890.394 678.72 888.394 676.96C886.394 675.12 884.194 673.76 881.794 672.88C879.394 671.92 876.834 671.44 874.114 671.44C870.994 671.44 868.274 671.92 865.954 672.88C863.634 673.84 861.794 675.2 860.434 676.96C859.154 678.64 858.514 680.64 858.514 682.96C858.514 684.64 858.834 686.2 859.474 687.64C860.114 689 861.074 690.24 862.354 691.36C863.714 692.4 865.514 693.36 867.754 694.24C869.994 695.04 872.674 695.76 875.794 696.4C880.194 697.36 884.114 698.6 887.554 700.12C890.994 701.56 893.914 703.28 896.314 705.28C898.714 707.28 900.514 709.52 901.714 712C902.994 714.48 903.634 717.16 903.634 720.04C903.634 725.4 902.394 730.04 899.914 733.96C897.434 737.88 893.914 740.92 889.354 743.08C884.794 745.16 879.354 746.2 873.034 746.2Z" fill="#F0F0F0"/>
<path d="M238.053 157.961C238.789 153.495 245.211 153.495 245.947 157.961L250.726 186.977C251.005 188.669 252.331 189.995 254.023 190.274L283.039 195.053C287.505 195.789 287.505 202.211 283.039 202.947L254.023 207.726C252.331 208.005 251.005 209.331 250.726 211.023L245.947 240.039C245.211 244.505 238.789 244.505 238.053 240.039L233.274 211.023C232.995 209.331 231.669 208.005 229.977 207.726L200.961 202.947C196.495 202.211 196.495 195.789 200.961 195.053L229.977 190.274C231.669 189.995 232.995 188.669 233.274 186.977L238.053 157.961Z" fill="#F0F0F0"/>
<path d="M788.553 768.961C789.289 764.495 795.711 764.495 796.447 768.961L801.58 800.124C801.858 801.816 803.184 803.142 804.876 803.42L836.039 808.553C840.505 809.289 840.505 815.711 836.039 816.447L804.876 821.58C803.184 821.858 801.858 823.184 801.58 824.876L796.447 856.039C795.711 860.505 789.289 860.505 788.553 856.039L783.42 824.876C783.142 823.184 781.816 821.858 780.124 821.58L748.961 816.447C744.495 815.711 744.495 809.289 748.961 808.553L780.124 803.42C781.816 803.142 783.142 801.816 783.42 800.124L788.553 768.961Z" fill="#F0F0F0"/>
<defs>
<linearGradient id="paint0_linear_16_5" x1="512" y1="237" x2="512" y2="787" gradientUnits="userSpaceOnUse">
<stop stop-color="#F9D949"/>
<stop offset="0.484375" stop-color="#F45050"/>
<stop offset="1" stop-color="#960000"/>
</linearGradient>
</defs>
</svg>
