<svg width="1024" height="1024" viewBox="0 0 1024 1024" fill="none" xmlns="http://www.w3.org/2000/svg">
<rect width="1024" height="1024" fill="#3C486B"/>
<ellipse cx="517.834" cy="488.629" rx="275.566" ry="256.629" fill="url(#paint0_linear_6_49)"/>
<path fill-rule="evenodd" clip-rule="evenodd" d="M246.755 414.049C247.831 410.399 248.989 406.782 250.228 403.198C237.082 405.684 224.551 408.35 212.699 411.18C173.601 420.516 141.611 431.708 119.274 444.318C97.3408 456.701 82.9501 471.483 82.9501 488.629C82.9501 505.774 97.3408 520.557 119.274 532.939C141.611 545.55 173.601 556.742 212.699 566.078C290.973 584.769 398.852 596.28 517.834 596.28C636.815 596.28 744.694 584.769 822.969 566.078C862.067 556.742 894.056 545.55 916.393 532.939C938.327 520.557 952.718 505.774 952.718 488.629C952.718 471.483 938.327 456.701 916.393 444.318C894.056 431.708 862.067 420.516 822.969 411.18C811.116 408.35 798.585 405.684 785.439 403.198C786.678 406.782 787.837 410.399 788.912 414.049C799.969 416.209 810.561 418.498 820.646 420.906C859.342 430.147 890.307 441.075 911.477 453.026C933.05 465.206 942.718 477.428 942.718 488.629C942.718 499.83 933.05 512.052 911.477 524.231C890.307 536.183 859.342 547.111 820.646 556.351C743.333 574.813 636.271 586.28 517.834 586.28C399.397 586.28 292.334 574.813 215.021 556.351C176.326 547.111 145.36 536.183 124.191 524.231C102.618 512.052 92.9501 499.83 92.9501 488.629C92.9501 477.428 102.618 465.206 124.191 453.026C145.36 441.075 176.326 430.147 215.021 420.906C225.107 418.498 235.698 416.209 246.755 414.049Z" fill="#F0F0F0" style="mix-blend-mode:plus-lighter"/>
<path d="M184.004 742.341V676.781H162.444V665.341H218.104V676.781H195.884V742.341H184.004ZM232.753 742.341V665.341H281.263V676.781H244.633V730.901H281.263V742.341H232.753ZM238.143 708.571V697.131H275.213V708.571H238.143ZM324.081 743.441C319.901 743.441 316.015 742.891 312.421 741.791C308.901 740.691 305.675 739.041 302.741 736.841C299.881 734.568 297.315 731.781 295.041 728.481L303.181 719.131C306.775 724.264 310.221 727.821 313.521 729.801C316.821 731.781 320.745 732.771 325.291 732.771C328.078 732.771 330.608 732.331 332.881 731.451C335.155 730.571 336.951 729.361 338.271 727.821C339.591 726.281 340.251 724.521 340.251 722.541C340.251 721.221 340.031 719.974 339.591 718.801C339.151 717.628 338.455 716.564 337.501 715.611C336.621 714.658 335.448 713.778 333.981 712.971C332.588 712.164 330.938 711.468 329.031 710.881C327.125 710.221 324.925 709.671 322.431 709.231C318.471 708.424 315.025 707.361 312.091 706.041C309.158 704.721 306.701 703.071 304.721 701.091C302.741 699.111 301.275 696.874 300.321 694.381C299.368 691.814 298.891 688.954 298.891 685.801C298.891 682.721 299.551 679.861 300.871 677.221C302.265 674.581 304.135 672.308 306.481 670.401C308.901 668.421 311.725 666.918 314.951 665.891C318.178 664.791 321.661 664.241 325.401 664.241C329.361 664.241 332.991 664.754 336.291 665.781C339.591 666.808 342.525 668.348 345.091 670.401C347.658 672.381 349.785 674.838 351.471 677.771L343.111 686.021C341.645 683.601 339.995 681.584 338.161 679.971C336.328 678.284 334.311 677.038 332.111 676.231C329.911 675.351 327.565 674.911 325.071 674.911C322.211 674.911 319.718 675.351 317.591 676.231C315.465 677.111 313.778 678.358 312.531 679.971C311.358 681.511 310.771 683.344 310.771 685.471C310.771 687.011 311.065 688.441 311.651 689.761C312.238 691.008 313.118 692.144 314.291 693.171C315.538 694.124 317.188 695.004 319.241 695.811C321.295 696.544 323.751 697.204 326.611 697.791C330.645 698.671 334.238 699.808 337.391 701.201C340.545 702.521 343.221 704.098 345.421 705.931C347.621 707.764 349.271 709.818 350.371 712.091C351.545 714.364 352.131 716.821 352.131 719.461C352.131 724.374 350.995 728.628 348.721 732.221C346.448 735.814 343.221 738.601 339.041 740.581C334.861 742.488 329.875 743.441 324.081 743.441ZM383.594 742.341V676.781H362.034V665.341H417.694V676.781H395.474V742.341H383.594ZM519.823 754.441L490.673 716.271L500.463 709.781L529.283 747.621L519.823 754.441ZM495.403 743.441C489.976 743.441 484.953 742.451 480.333 740.471C475.786 738.491 471.79 735.741 468.343 732.221C464.97 728.628 462.33 724.448 460.423 719.681C458.59 714.841 457.673 709.561 457.673 703.841C457.673 698.121 458.59 692.878 460.423 688.111C462.33 683.271 464.97 679.091 468.343 675.571C471.79 671.978 475.786 669.191 480.333 667.211C484.953 665.231 489.976 664.241 495.403 664.241C500.83 664.241 505.816 665.231 510.363 667.211C514.983 669.191 518.98 671.978 522.353 675.571C525.8 679.164 528.44 683.381 530.273 688.221C532.18 692.988 533.133 698.194 533.133 703.841C533.133 709.488 532.18 714.731 530.273 719.571C528.44 724.338 525.8 728.518 522.353 732.111C518.98 735.704 514.983 738.491 510.363 740.471C505.816 742.451 500.83 743.441 495.403 743.441ZM495.403 731.891C499.143 731.891 502.553 731.194 505.633 729.801C508.786 728.408 511.5 726.464 513.773 723.971C516.046 721.404 517.806 718.434 519.053 715.061C520.373 711.614 521.033 707.874 521.033 703.841C521.033 699.808 520.373 696.104 519.053 692.731C517.806 689.284 516.046 686.314 513.773 683.821C511.5 681.254 508.786 679.274 505.633 677.881C502.553 676.488 499.143 675.791 495.403 675.791C491.663 675.791 488.216 676.488 485.063 677.881C481.983 679.274 479.27 681.218 476.923 683.711C474.65 686.204 472.89 689.174 471.643 692.621C470.396 695.994 469.773 699.734 469.773 703.841C469.773 707.874 470.396 711.614 471.643 715.061C472.89 718.508 474.65 721.478 476.923 723.971C479.27 726.464 481.983 728.408 485.063 729.801C488.216 731.194 491.663 731.891 495.403 731.891ZM579.138 743.001C573.198 743.001 567.881 741.718 563.188 739.151C558.495 736.511 554.791 732.918 552.078 728.371C549.438 723.751 548.118 718.544 548.118 712.751V665.231H559.998V711.761C559.998 715.501 560.878 718.874 562.638 721.881C564.398 724.814 566.708 727.161 569.568 728.921C572.501 730.681 575.691 731.561 579.138 731.561C582.805 731.561 586.105 730.681 589.038 728.921C592.045 727.161 594.428 724.814 596.188 721.881C597.948 718.874 598.828 715.501 598.828 711.761V665.231H610.158V712.751C610.158 718.544 608.801 723.751 606.088 728.371C603.448 732.918 599.781 736.511 595.088 739.151C590.395 741.718 585.078 743.001 579.138 743.001ZM630.644 742.341V665.341H679.154V676.781H642.524V730.901H679.154V742.341H630.644ZM636.034 708.571V697.131H673.104V708.571H636.034ZM721.972 743.441C717.792 743.441 713.905 742.891 710.312 741.791C706.792 740.691 703.565 739.041 700.632 736.841C697.772 734.568 695.205 731.781 692.932 728.481L701.072 719.131C704.665 724.264 708.112 727.821 711.412 729.801C714.712 731.781 718.635 732.771 723.182 732.771C725.969 732.771 728.499 732.331 730.772 731.451C733.045 730.571 734.842 729.361 736.162 727.821C737.482 726.281 738.142 724.521 738.142 722.541C738.142 721.221 737.922 719.974 737.482 718.801C737.042 717.628 736.345 716.564 735.392 715.611C734.512 714.658 733.339 713.778 731.872 712.971C730.479 712.164 728.829 711.468 726.922 710.881C725.015 710.221 722.815 709.671 720.322 709.231C716.362 708.424 712.915 707.361 709.982 706.041C707.049 704.721 704.592 703.071 702.612 701.091C700.632 699.111 699.165 696.874 698.212 694.381C697.259 691.814 696.782 688.954 696.782 685.801C696.782 682.721 697.442 679.861 698.762 677.221C700.155 674.581 702.025 672.308 704.372 670.401C706.792 668.421 709.615 666.918 712.842 665.891C716.069 664.791 719.552 664.241 723.292 664.241C727.252 664.241 730.882 664.754 734.182 665.781C737.482 666.808 740.415 668.348 742.982 670.401C745.549 672.381 747.675 674.838 749.362 677.771L741.002 686.021C739.535 683.601 737.885 681.584 736.052 679.971C734.219 678.284 732.202 677.038 730.002 676.231C727.802 675.351 725.455 674.911 722.962 674.911C720.102 674.911 717.609 675.351 715.482 676.231C713.355 677.111 711.669 678.358 710.422 679.971C709.249 681.511 708.662 683.344 708.662 685.471C708.662 687.011 708.955 688.441 709.542 689.761C710.129 691.008 711.009 692.144 712.182 693.171C713.429 694.124 715.079 695.004 717.132 695.811C719.185 696.544 721.642 697.204 724.502 697.791C728.535 698.671 732.129 699.808 735.282 701.201C738.435 702.521 741.112 704.098 743.312 705.931C745.512 707.764 747.162 709.818 748.262 712.091C749.435 714.364 750.022 716.821 750.022 719.461C750.022 724.374 748.885 728.628 746.612 732.221C744.339 735.814 741.112 738.601 736.932 740.581C732.752 742.488 727.765 743.441 721.972 743.441ZM781.485 742.341V676.781H759.925V665.341H815.585V676.781H793.365V742.341H781.485ZM853.993 743.441C849.813 743.441 845.927 742.891 842.333 741.791C838.813 740.691 835.587 739.041 832.653 736.841C829.793 734.568 827.227 731.781 824.953 728.481L833.093 719.131C836.687 724.264 840.133 727.821 843.433 729.801C846.733 731.781 850.657 732.771 855.203 732.771C857.99 732.771 860.52 732.331 862.793 731.451C865.067 730.571 866.863 729.361 868.183 727.821C869.503 726.281 870.163 724.521 870.163 722.541C870.163 721.221 869.943 719.974 869.503 718.801C869.063 717.628 868.367 716.564 867.413 715.611C866.533 714.658 865.36 713.778 863.893 712.971C862.5 712.164 860.85 711.468 858.943 710.881C857.037 710.221 854.837 709.671 852.343 709.231C848.383 708.424 844.937 707.361 842.003 706.041C839.07 704.721 836.613 703.071 834.633 701.091C832.653 699.111 831.187 696.874 830.233 694.381C829.28 691.814 828.803 688.954 828.803 685.801C828.803 682.721 829.463 679.861 830.783 677.221C832.177 674.581 834.047 672.308 836.393 670.401C838.813 668.421 841.637 666.918 844.863 665.891C848.09 664.791 851.573 664.241 855.313 664.241C859.273 664.241 862.903 664.754 866.203 665.781C869.503 666.808 872.437 668.348 875.003 670.401C877.57 672.381 879.697 674.838 881.383 677.771L873.023 686.021C871.557 683.601 869.907 681.584 868.073 679.971C866.24 678.284 864.223 677.038 862.023 676.231C859.823 675.351 857.477 674.911 854.983 674.911C852.123 674.911 849.63 675.351 847.503 676.231C845.377 677.111 843.69 678.358 842.443 679.971C841.27 681.511 840.683 683.344 840.683 685.471C840.683 687.011 840.977 688.441 841.563 689.761C842.15 691.008 843.03 692.144 844.203 693.171C845.45 694.124 847.1 695.004 849.153 695.811C851.207 696.544 853.663 697.204 856.523 697.791C860.557 698.671 864.15 699.808 867.303 701.201C870.457 702.521 873.133 704.098 875.333 705.931C877.533 707.764 879.183 709.818 880.283 712.091C881.457 714.364 882.043 716.821 882.043 719.461C882.043 724.374 880.907 728.628 878.633 732.221C876.36 735.814 873.133 738.601 868.953 740.581C864.773 742.488 859.787 743.441 853.993 743.441Z" fill="#F0F0F0"/>
<g style="mix-blend-mode:soft-light">
<path d="M405.318 279.665C408.075 284.451 400.61 293.917 388.646 300.808C376.681 307.699 364.747 309.406 361.991 304.62C359.235 299.834 366.699 290.368 378.664 283.477C390.628 276.586 402.562 274.88 405.318 279.665Z" fill="#960000" style="mix-blend-mode:darken"/>
</g>
<g style="mix-blend-mode:soft-light">
<ellipse cx="421.128" cy="272.252" rx="10" ry="5" transform="rotate(-21 421.128 272.252)" fill="#960000"/>
</g>
<path d="M284.053 183.961C284.789 179.495 291.211 179.495 291.947 183.961L296.019 208.684C296.298 210.376 297.624 211.702 299.316 211.981L324.039 216.053C328.505 216.789 328.505 223.211 324.039 223.947L299.316 228.019C297.624 228.298 296.298 229.624 296.019 231.316L291.947 256.039C291.211 260.505 284.789 260.505 284.053 256.039L279.981 231.316C279.702 229.624 278.376 228.298 276.684 228.019L251.961 223.947C247.495 223.211 247.495 216.789 251.961 216.053L276.684 211.981C278.376 211.702 279.702 210.376 279.981 208.684L284.053 183.961Z" fill="#F0F0F0"/>
<path d="M739.053 797.961C739.789 793.495 746.211 793.495 746.947 797.961L749.605 814.098C749.884 815.79 751.21 817.116 752.902 817.395L769.039 820.053C773.505 820.789 773.505 827.211 769.039 827.947L752.902 830.605C751.21 830.884 749.884 832.21 749.605 833.902L746.947 850.039C746.211 854.505 739.789 854.505 739.053 850.039L736.395 833.902C736.116 832.21 734.79 830.884 733.098 830.605L716.961 827.947C712.495 827.211 712.495 820.789 716.961 820.053L733.098 817.395C734.79 817.116 736.116 815.79 736.395 814.098L739.053 797.961Z" fill="#F0F0F0"/>
<defs>
<linearGradient id="paint0_linear_6_49" x1="517.834" y1="232" x2="517.834" y2="745.258" gradientUnits="userSpaceOnUse">
<stop stop-color="#F9D949"/>
<stop offset="0.484375" stop-color="#F45050"/>
<stop offset="1" stop-color="#960000"/>
</linearGradient>
</defs>
</svg>
